<svg width="237" height="116" viewBox="0 0 237 116" fill="none" xmlns="http://www.w3.org/2000/svg">
<g clip-path="url(#clip0_1_1497)">
<path d="M196.93 61.8962C196.822 61.6257 196.768 61.4092 196.66 61.1387L196.93 61.8962Z" fill="#DDB762"/>
<path d="M197.419 33.1074L198.014 34.4061L199.259 34.5685L198.339 35.5425L198.555 36.9494L197.419 36.3L196.337 36.9494L196.553 35.5425L195.633 34.5685L196.878 34.4061L197.419 33.1074Z" fill="#DDB762"/>
<path d="M202.505 35.7598L202.776 36.4091L203.425 36.5173L202.938 37.0043L203.047 37.7078L202.505 37.3831L201.964 37.7078L202.073 37.0043L201.64 36.5173L202.235 36.4091L202.505 35.7598Z" fill="#DDB762"/>
<path d="M192.059 35.7598L192.329 36.4091L192.979 36.5173L192.492 37.0043L192.6 37.7078L192.059 37.3831L191.518 37.7078L191.626 37.0043L191.193 36.5173L191.788 36.4091L192.059 35.7598Z" fill="#DDB762"/>
<path fill-rule="evenodd" clip-rule="evenodd" d="M197.634 41.3867C202.342 41.3867 206.13 43.2265 206.13 45.4993C206.13 46.0945 205.859 46.6897 205.372 47.1767C204.939 45.9322 203.803 45.1205 202.937 44.6876C201.314 43.8759 199.312 43.5512 197.58 43.5512C195.848 43.5512 193.9 43.8218 192.223 44.6876C191.357 45.1205 190.221 45.878 189.788 47.1767C189.301 46.6897 189.03 46.0945 189.03 45.4993C189.138 43.2265 192.926 41.3867 197.634 41.3867Z" fill="#DDB762"/>
<path fill-rule="evenodd" clip-rule="evenodd" d="M197.633 39.168C202.449 39.168 206.345 41.0078 206.345 43.2805C206.345 43.5511 206.291 43.7675 206.237 43.984C205.534 42.0359 201.962 40.5749 197.688 40.5749C193.413 40.5749 189.841 42.0359 189.138 43.984C189.03 43.7675 189.03 43.4969 189.03 43.2805C188.921 41.0619 192.817 39.168 197.633 39.168Z" fill="#DDB762"/>
<path fill-rule="evenodd" clip-rule="evenodd" d="M191.68 60.9219C192.221 61.463 192.762 61.6253 193.303 61.6253V63.5193C192.654 62.6535 192.113 61.7336 191.68 60.9219Z" fill="#DDB762"/>
<path fill-rule="evenodd" clip-rule="evenodd" d="M204.615 47.2843V48.7995C204.453 48.7453 204.29 48.7453 204.128 48.7995C203.966 48.8536 203.857 48.9618 203.803 49.1241C203.749 49.1782 203.749 49.2324 203.749 49.2865V55.8882C203.154 56.6998 202.613 57.6198 202.018 58.5397V49.9899C202.018 49.2865 201.639 48.7453 201.152 48.7453C200.665 48.7453 200.286 49.2865 200.286 49.9899V61.2453C199.637 62.2193 199.041 63.031 198.554 63.6803V49.9899C198.554 49.2865 198.176 48.7453 197.689 48.7453C197.202 48.7453 196.823 49.2865 196.823 49.9899V65.3578C196.228 65.6284 195.632 65.5201 195.091 65.1955V49.9899C195.091 49.2865 194.712 48.7453 194.225 48.7453C193.738 48.7453 193.36 49.2865 193.36 49.9899V60.8124C192.71 60.8124 192.169 60.4877 191.628 60.0007V49.2865C191.574 48.9077 191.141 48.6371 190.762 48.7995V47.2843C191.574 45.7692 194.388 44.6328 197.743 44.6328C200.935 44.6328 203.749 45.7692 204.615 47.2843Z" fill="#DDB762"/>
<path fill-rule="evenodd" clip-rule="evenodd" d="M214.407 44.3633C210.944 46.6901 207.426 50.5321 203.693 55.8892C203.097 56.7009 202.556 57.6208 201.961 58.5407C201.745 58.8654 201.528 59.2442 201.312 59.5688C200.933 60.1641 200.554 60.7593 200.229 61.2463C199.58 62.2203 198.985 63.032 198.498 63.6814C198.119 64.1143 197.794 64.493 197.524 64.8177C197.253 65.0883 197.037 65.2506 196.766 65.3588C196.171 65.6294 195.576 65.5212 195.035 65.1965C194.439 64.8177 193.844 64.2225 193.303 63.519C192.654 62.6532 192.113 61.7333 191.68 60.9216C192.221 61.4628 192.762 61.6251 193.303 61.6251C193.898 61.6251 194.494 61.3545 195.035 60.9216C195.63 60.4887 196.225 59.8935 196.766 59.2442C197.145 58.8113 197.47 58.3242 197.794 57.9455C198.011 57.6208 198.281 57.2961 198.498 56.9714C199.093 56.2139 199.634 55.4563 200.229 54.7528C200.825 54.0494 201.366 53.3459 201.961 52.7507C202.556 52.1013 203.151 51.5061 203.693 50.9109C207.426 47.2853 210.998 45.0667 214.407 44.3633Z" fill="#DDB762"/>
<path fill-rule="evenodd" clip-rule="evenodd" d="M195.901 59.3518C195.576 59.6764 195.306 59.8929 195.035 60.1093C194.386 60.5963 193.845 60.7587 193.303 60.7587C192.654 60.7587 192.113 60.434 191.572 59.947C189.84 58.3777 188.487 55.0228 186.269 54.8063C187.946 52.7501 189.786 52.2089 191.572 53.4535C192.167 53.8323 192.762 54.4275 193.303 55.2392C193.412 55.4016 193.52 55.5098 193.628 55.7262C194.061 56.4297 194.548 57.2414 195.035 58.0531C195.306 58.486 195.576 58.973 195.901 59.3518Z" fill="#DDB762"/>
<path d="M163.274 66.7653C161.922 66.7653 160.839 66.17 160.136 65.0337C160.028 64.8713 159.974 64.8713 159.919 64.8172C159.432 64.709 159.054 64.3302 159 63.8973C158.891 63.4103 159.108 62.9233 159.487 62.5986C159.757 62.3822 160.028 62.2739 160.298 62.2198C160.298 62.1657 160.352 62.1116 160.406 61.9493C161.597 57.7826 162.733 53.616 163.924 49.4493L164.898 46.0403C164.952 45.8238 164.952 45.7156 164.952 45.7156C164.952 45.7156 164.952 45.6615 164.898 45.6074C164.519 45.2286 164.303 44.6875 164.303 44.1463C164.303 43.497 164.573 42.9018 165.006 42.4689C165.385 42.0901 165.926 41.9277 166.467 41.9277C167.062 41.9277 167.603 42.1442 167.982 42.5771C168.415 43.01 168.686 43.6593 168.632 44.2546C168.632 44.7957 168.361 45.3368 167.928 45.7156C167.874 45.7697 167.874 45.7697 167.874 45.7697C167.874 45.7697 167.874 45.8238 167.928 45.9862C169.01 49.7199 170.038 53.4536 171.121 57.1874C171.121 57.1874 171.878 59.893 171.986 60.1636C172.149 60.8129 172.365 61.4623 172.528 62.1657C172.744 62.2198 173.069 62.2739 173.285 62.4904C173.448 62.5986 173.88 63.0315 173.826 63.6267C173.826 64.1138 173.393 64.6008 172.906 64.7631C172.852 64.7631 172.798 64.8172 172.636 65.0878C171.986 66.1159 170.958 66.7111 169.714 66.7111C169.281 66.7111 168.848 66.7111 168.469 66.7111C168.415 66.7653 163.816 66.7653 163.274 66.7653ZM163.383 61.8952C163.437 61.8952 163.491 61.8952 163.545 61.8952C164.032 61.8952 164.465 61.841 164.952 61.841C164.952 59.9471 164.952 58.1073 164.952 56.2134L163.383 61.8952ZM167.82 61.841C168.253 61.841 168.74 61.841 169.227 61.841H169.443L167.82 56.1051C167.82 57.9991 167.82 59.9471 167.82 61.841Z" fill="#DDB762"/>
<path d="M217.279 45.4998V38.6816" stroke="#DDB762" stroke-width="0.880947" stroke-miterlimit="10"/>
<path d="M236.437 37.9776V112.057C236.437 112.22 236.383 112.382 236.274 112.49C236.112 112.707 235.787 112.761 235.517 112.653C235.463 112.653 235.409 112.598 235.354 112.598C234.813 112.382 234.326 112.111 233.839 111.841C233.461 111.624 233.028 111.408 232.649 111.137C230.809 109.947 229.023 108.432 227.454 106.646L227.4 106.592C227.292 106.43 227.129 106.267 227.021 106.159C225.777 104.698 224.64 103.075 223.666 101.289C223.558 101.073 223.396 100.802 223.287 100.585C222.259 98.6916 221.448 96.6894 220.744 94.5249C220.582 94.092 220.474 93.6591 220.365 93.2262C219.608 90.4665 219.121 87.5986 218.958 84.6765C218.958 84.3518 218.904 84.0271 218.904 83.7566C218.904 83.4319 218.904 83.1614 218.904 82.8367V37.9776C218.904 35.4343 218.363 32.9452 217.335 30.7266C214.142 23.5838 206.296 18.4972 197.151 18.4972C188.06 18.4972 180.268 23.5297 177.021 30.6184C175.993 32.8911 175.398 35.3802 175.398 37.9235V79.9687C175.398 81.8627 176.913 83.3778 178.807 83.3778H185.355C186.87 83.3778 188.114 82.1332 188.114 80.6181V74.1787C188.114 73.7999 188.439 73.4753 188.818 73.4753H207.162C207.541 73.4753 207.865 73.7999 207.865 74.1787V100.207C207.865 100.585 207.541 100.91 207.162 100.91H204.023H158.569C158.19 100.91 157.866 100.585 157.866 100.207V37.9776C157.866 27.9669 162.032 18.5513 169.608 11.5708C177.021 4.7527 186.762 0.964844 197.151 0.964844C207.541 0.964844 217.281 4.7527 224.694 11.5708C232.27 18.6054 236.437 27.9669 236.437 37.9776Z" fill="#DDB762"/>
<path d="M224.695 66.7658C223.342 66.7658 222.26 66.1706 221.556 65.0342C221.448 64.8719 221.394 64.8719 221.34 64.8178C220.853 64.7096 220.474 64.3308 220.42 63.8979C220.312 63.4109 220.528 62.9239 220.907 62.5992C221.178 62.3827 221.448 62.2745 221.719 62.2204C221.719 62.1663 221.773 62.1122 221.827 61.9498C223.071 57.5126 224.316 53.1295 225.561 48.6923L226.318 46.095C226.372 45.8785 226.372 45.7703 226.372 45.7703C226.372 45.7703 226.372 45.7162 226.318 45.6621C225.939 45.2833 225.723 44.7421 225.723 44.201C225.723 43.5517 225.994 42.9564 226.426 42.5235C226.805 42.1448 227.346 41.9824 227.887 41.9824C228.483 41.9824 229.024 42.1989 229.403 42.6318C229.835 43.0647 230.052 43.714 230.052 44.3092C230.052 44.8504 229.781 45.3915 229.348 45.7703C229.294 45.8244 229.294 45.8244 229.294 45.8244C229.294 45.8244 229.294 45.8785 229.348 46.0408C230.322 49.504 231.351 53.0213 232.325 56.4845L233.136 59.3525L233.353 60.11C233.569 60.8135 233.732 61.5169 233.948 62.2204C234.164 62.2745 234.489 62.3286 234.706 62.5451C234.868 62.6533 235.301 63.0862 235.247 63.6814C235.247 64.1684 234.814 64.6555 234.327 64.8178C234.273 64.8178 234.219 64.8719 234.056 65.1425C233.407 66.1706 232.379 66.7658 231.134 66.7658C230.701 66.7658 230.268 66.7658 229.89 66.7658C229.89 66.7658 225.236 66.7658 224.695 66.7658ZM224.803 61.8957C224.857 61.8957 224.911 61.8957 224.965 61.8957C225.452 61.8957 225.885 61.8416 226.372 61.8416C226.372 59.9477 226.372 58.1079 226.372 56.2139L224.803 61.8957ZM229.24 61.8416C229.673 61.8416 230.16 61.8416 230.647 61.8416H230.864C230.322 59.9477 229.781 57.9996 229.24 56.1057C229.24 57.9996 229.24 59.9477 229.24 61.8416Z" fill="#DDB762"/>
<mask id="mask0_1_1497" style="mask-type:luminance" maskUnits="userSpaceOnUse" x="220" y="41" width="16" height="26">
<path d="M235.29 41.9824H220.409V66.7658H235.29V41.9824Z" fill="white"/>
</mask>
<g mask="url(#mask0_1_1497)">
<path d="M224.686 66.7658C223.333 66.7658 222.25 66.1706 221.547 65.0342C221.439 64.8719 221.385 64.8719 221.331 64.8178C220.844 64.7096 220.465 64.3308 220.411 63.8979C220.302 63.4109 220.519 62.9239 220.898 62.5992C221.168 62.3827 221.439 62.2745 221.709 62.2204C221.709 62.1663 221.763 62.1122 221.818 61.9498C223.062 57.5126 224.307 53.1295 225.551 48.6923L226.309 46.095C226.363 45.8785 226.363 45.7703 226.363 45.7703C226.363 45.7703 226.363 45.7162 226.309 45.6621C225.93 45.2833 225.714 44.7421 225.714 44.201C225.714 43.5517 225.984 42.9564 226.417 42.5235C226.796 42.1448 227.337 41.9824 227.878 41.9824C228.473 41.9824 229.015 42.1989 229.393 42.6318C229.826 43.0647 230.043 43.714 230.043 44.3092C230.043 44.8504 229.772 45.3915 229.339 45.7703C229.285 45.8244 229.285 45.8244 229.285 45.8244C229.285 45.8244 229.285 45.8785 229.339 46.0408C230.313 49.504 231.341 53.0213 232.315 56.4845L233.127 59.3525L233.344 60.11C233.56 60.8135 233.722 61.5169 233.939 62.2204C234.155 62.2745 234.48 62.3286 234.696 62.5451C234.859 62.6533 235.292 63.0862 235.237 63.6814C235.237 64.1684 234.805 64.6555 234.318 64.8178C234.263 64.8178 234.209 64.8719 234.047 65.1425C233.398 66.1706 232.369 66.7658 231.125 66.7658C230.692 66.7658 230.259 66.7658 229.88 66.7658C229.88 66.7658 225.227 66.7658 224.686 66.7658ZM224.794 61.8957C224.848 61.8957 224.902 61.8957 224.956 61.8957C225.443 61.8957 225.876 61.8416 226.363 61.8416C226.363 59.9477 226.363 58.1079 226.363 56.2139L224.794 61.8957ZM229.231 61.8416C229.664 61.8416 230.151 61.8416 230.638 61.8416H230.854C230.313 59.9477 229.772 57.9996 229.231 56.1057C229.231 57.9996 229.231 59.9477 229.231 61.8416Z" fill="#DDB762"/>
</g>
<path d="M234.216 63.1948C234.108 63.0866 233.891 63.0325 233.729 63.0325C233.404 62.9784 233.242 62.8161 233.134 62.4373C232.917 61.4633 232.592 60.5433 232.322 59.5693C231.077 55.1321 229.779 50.6949 228.534 46.2577C228.426 45.8248 228.372 45.5001 228.751 45.1214C229.346 44.6343 229.292 43.7685 228.751 43.2274C228.264 42.7404 227.452 42.6863 226.965 43.1733C226.424 43.6603 226.315 44.5802 226.857 45.1214C227.289 45.5542 227.235 45.933 227.073 46.3659C225.558 51.6689 224.097 56.9719 222.582 62.2208C222.473 62.7078 222.311 63.0325 221.716 63.0866C221.608 63.0866 221.445 63.1948 221.337 63.249C221.012 63.5195 221.067 63.9524 221.499 64.0606C221.824 64.1689 222.041 64.3312 222.203 64.6559C222.744 65.5758 223.556 65.9546 224.638 65.9546C225.666 65.9546 226.748 65.9546 227.776 65.9546C228.859 65.9546 229.995 65.9546 231.077 65.9546C232.051 65.9546 232.809 65.5217 233.35 64.71C233.567 64.3853 233.729 64.1689 234.108 64.0606C234.27 64.0065 234.432 63.8442 234.432 63.6819C234.432 63.5195 234.324 63.3031 234.216 63.1948ZM226.748 62.6537C225.937 62.6537 225.071 62.7078 224.259 62.7619C224.097 62.7619 223.935 62.7619 223.718 62.7619C224.909 58.5953 226.045 54.4828 227.181 50.3702H227.235C227.235 54.2663 227.235 58.2165 227.235 62.1126C227.235 62.4914 227.181 62.6537 226.748 62.6537ZM228.696 62.6537C228.588 62.6537 228.48 62.4914 228.426 62.3832C228.372 62.329 228.426 62.2208 228.426 62.1126C228.426 58.1624 228.426 54.1581 228.48 50.1538C229.67 54.3204 230.807 58.4871 231.997 62.5996C230.807 62.6537 229.779 62.6537 228.696 62.6537Z" fill="#2B4868"/>
<mask id="mask1_1_1497" style="mask-type:luminance" maskUnits="userSpaceOnUse" x="158" y="41" width="16" height="26">
<path d="M173.839 41.9824H158.958V66.7658H173.839V41.9824Z" fill="white"/>
</mask>
<g mask="url(#mask1_1_1497)">
<path d="M163.284 66.7653C161.931 66.7653 160.849 66.17 160.146 65.0337C160.037 64.8713 159.983 64.8713 159.929 64.8172C159.442 64.709 159.063 64.3302 159.009 63.8973C158.901 63.4103 159.118 62.9233 159.496 62.5986C159.767 62.3822 160.037 62.2739 160.308 62.2198C160.308 62.1657 160.362 62.1116 160.416 61.9493C161.607 57.7826 162.743 53.616 163.934 49.4493L164.908 46.0403C164.962 45.8238 164.962 45.7156 164.962 45.7156C164.962 45.7156 164.962 45.6615 164.908 45.6074C164.529 45.2286 164.312 44.6875 164.312 44.1463C164.312 43.497 164.583 42.9018 165.016 42.4689C165.395 42.0901 165.936 41.9277 166.477 41.9277C167.072 41.9277 167.613 42.1442 167.992 42.5771C168.425 43.01 168.695 43.6593 168.641 44.2546C168.641 44.7957 168.371 45.3368 167.938 45.7156C167.884 45.7697 167.884 45.7697 167.884 45.7697C167.884 45.7697 167.884 45.8238 167.938 45.9862C169.02 49.7199 170.048 53.4536 171.13 57.1874C171.13 57.1874 171.888 59.893 171.996 60.1636C172.159 60.8129 172.375 61.4623 172.537 62.1657C172.754 62.2198 173.079 62.2739 173.295 62.4904C173.457 62.5986 173.89 63.0315 173.836 63.6267C173.836 64.1138 173.403 64.6008 172.916 64.7631C172.862 64.7631 172.808 64.8172 172.646 65.0878C171.996 66.1159 170.968 66.7111 169.724 66.7111C169.291 66.7111 168.858 66.7111 168.479 66.7111C168.425 66.7653 163.825 66.7653 163.284 66.7653ZM163.392 61.8952C163.447 61.8952 163.501 61.8952 163.555 61.8952C164.042 61.8952 164.475 61.841 164.962 61.841C164.962 59.9471 164.962 58.1073 164.962 56.2134L163.392 61.8952ZM167.83 61.841C168.263 61.841 168.75 61.841 169.237 61.841H169.453L167.83 56.1051C167.83 57.9991 167.83 59.9471 167.83 61.841Z" fill="#DDB762"/>
</g>
<path d="M172.747 63.1948C172.639 63.0866 172.423 63.0325 172.26 63.0325C171.936 62.9784 171.773 62.8161 171.665 62.4373C171.449 61.4633 171.124 60.5433 170.853 59.5693C169.609 55.1321 168.31 50.6949 167.066 46.2577C166.957 45.8248 166.903 45.5001 167.282 45.1214C167.877 44.6343 167.823 43.7685 167.282 43.2274C166.795 42.7404 165.983 42.6863 165.496 43.1733C164.955 43.6603 164.847 44.5802 165.388 45.1214C165.821 45.5542 165.767 45.933 165.605 46.3659C164.089 51.6689 162.574 56.9719 161.113 62.2208C161.005 62.7078 160.843 63.0325 160.247 63.0866C160.139 63.0866 159.977 63.1948 159.869 63.249C159.544 63.5195 159.598 63.9524 160.031 64.0606C160.356 64.1689 160.572 64.3312 160.734 64.6559C161.276 65.5758 162.087 65.9546 163.169 65.9546C164.198 65.9546 165.28 65.9546 166.308 65.9546C167.39 65.9546 168.527 65.9546 169.609 65.9546C170.583 65.9546 171.34 65.5217 171.882 64.71C172.098 64.3853 172.26 64.1689 172.639 64.0606C172.801 64.0065 172.964 63.8442 172.964 63.6819C173.018 63.5195 172.91 63.3031 172.747 63.1948ZM165.334 62.6537C164.522 62.6537 163.656 62.7078 162.845 62.7619C162.682 62.7619 162.52 62.7619 162.304 62.7619C163.494 58.5953 164.631 54.4828 165.767 50.3702H165.821C165.821 54.2663 165.821 58.2165 165.821 62.1126C165.821 62.4914 165.713 62.6537 165.334 62.6537ZM167.282 62.6537C167.174 62.6537 167.066 62.4914 167.011 62.3832C166.957 62.329 167.011 62.2208 167.011 62.1126C167.011 58.1624 167.011 54.1581 167.066 50.1538C168.256 54.3204 169.392 58.4871 170.583 62.5996C169.392 62.6537 168.364 62.6537 167.282 62.6537Z" fill="#2B4868"/>
<path d="M217.281 38.6816V45.4998C217.281 57.9456 217.389 65.846 217.389 86.1381" stroke="#DDB762" stroke-width="0.880947" stroke-miterlimit="10"/>
<path d="M177.022 38.3555V46.7429V79.5349C177.022 80.7795 177.942 81.8076 179.186 81.9158C179.24 81.9158 179.294 81.9158 179.294 81.9158H184.002H185.571H185.626" stroke="#DDB762" stroke-width="0.880947" stroke-miterlimit="10"/>
<path d="M217.28 38.79C217.28 36.0303 216.631 33.2706 215.278 30.8355C211.869 24.5044 205.213 20.1754 197.583 19.959C197.367 19.959 197.151 19.959 196.934 19.959C196.718 19.959 196.501 19.959 196.285 19.959C189.737 20.1754 183.947 23.3681 180.268 28.2382C178.103 31.1602 176.913 34.6775 176.913 38.3571V46.7445" stroke="#DDB762" stroke-width="0.880947" stroke-miterlimit="10"/>
<path d="M217.39 86.1367C217.39 90.7904 221.124 109.134 235.734 114.6" stroke="#DDB762" stroke-width="0.880947" stroke-miterlimit="10"/>
<path d="M62.1923 57.9444C63.1122 57.0786 64.0321 56.1587 65.0603 55.347C66.3049 54.3188 67.8741 54.1024 69.1728 55.0764C72.3113 57.4032 75.3416 56.6998 78.2637 54.8059C81.294 52.8578 84.1619 50.7474 87.1381 48.7994C91.6294 45.8773 91.7917 45.8773 95.9584 49.1241C96.1207 49.2323 96.283 49.3946 96.4995 49.5028C97.8523 50.5851 99.2592 50.6392 100.558 49.557C101.911 48.4206 103.264 47.176 104.4 45.8232C107.592 41.7648 107.484 40.6826 103.318 37.3817C102.127 36.4618 102.181 35.8666 103.209 34.8925C106.402 31.9705 109.919 29.5354 114.248 28.3991C118.631 27.2627 121.716 24.7194 124.259 21.4727C125.017 20.4987 126.586 19.3623 125.45 18.0095C124.259 16.6567 122.582 17.6848 121.337 18.226C111.38 22.3385 102.722 27.9662 97.0406 36.8406C96.3913 37.8687 95.2549 38.6804 94.1727 39.3839C92.2787 40.6284 90.2225 41.6566 88.3285 42.847C85.5147 44.6328 82.755 46.5808 79.887 48.3665C77.7767 49.7193 75.4498 49.9899 73.0689 48.9076C70.4715 47.7713 67.9823 48.0418 65.6014 49.3946C64.3027 50.0981 63.0581 50.8557 61.7053 51.505C60.4607 52.1002 59.1079 52.6414 57.7551 52.966C50.45 54.8059 45.2011 50.9098 46.0128 43.9834C46.7703 36.7865 48.0149 29.6437 48.9889 22.5008C49.4759 18.9294 49.8547 15.358 50.0712 11.7866C50.1253 11.029 49.3136 10.1632 48.9348 9.35156C48.2314 9.89268 47.2032 10.3256 46.9327 11.029C45.634 14.2217 44.2812 17.4684 43.4695 20.8234C42.3872 25.477 41.7379 30.1848 40.8721 34.8925C39.8981 40.3038 38.9241 45.7691 38.0042 50.9098C38.4912 53.7236 38.6535 56.2669 39.357 58.5937C41.4673 65.5201 49.8006 68.1175 56.0235 63.7344C58.3504 62.0569 60.1902 59.8924 62.1923 57.9444Z" fill="#DDB762"/>
<path d="M55.1573 35.5958C57.1595 36.678 59.1617 37.7602 61.1097 38.8966C62.4625 39.7083 63.653 39.6001 64.7893 38.6802C66.088 37.652 67.4408 36.6239 68.469 35.3793C69.5512 34.0806 70.4711 34.0265 71.8239 34.9464C73.1226 35.8663 74.6378 36.5698 75.9365 37.4356C77.2351 38.3014 78.4256 38.2473 79.6161 37.4356C80.1572 37.0568 80.6983 36.678 81.2395 36.2992C86.8671 31.9161 86.1637 28.7776 79.8867 25.6932C77.5057 24.5569 76.8564 24.7192 75.0165 26.5049C73.4473 28.02 71.8239 29.5352 70.6335 30.7798C67.9278 29.1564 65.8175 27.8036 63.5989 26.6672C63.0036 26.3426 61.6508 26.4508 61.1638 26.8837C58.8911 28.7776 56.8348 30.888 54.7244 32.9443C53.5881 33.9724 53.7504 34.8382 55.1573 35.5958Z" fill="#DDB762"/>
<path d="M128.587 34.1904C125.556 29.4826 119.875 28.5627 115.383 32.1882C114.409 32.9458 113.652 33.9198 112.84 34.7856C111.812 35.922 112.028 36.8419 113.327 37.7618C115.113 39.0064 116.79 40.3592 118.414 41.6579C116.52 43.2271 114.842 44.4717 113.381 45.9327C111.758 47.502 111.866 48.0972 113.598 49.5041C115.005 50.6405 116.411 51.7768 117.818 52.9132C119.496 54.3201 120.145 54.3742 121.823 53.0214C123.825 51.4522 125.773 49.8288 127.775 48.3137C129.29 47.1232 129.507 46.5821 127.992 45.3375C126.206 43.8223 124.204 42.5778 122.147 41.0626C123.933 39.6557 125.881 38.0864 127.829 36.5172C128.641 35.8678 129.29 35.2726 128.587 34.1904Z" fill="#DDB762"/>
<path d="M32.9721 34.1903C32.4851 33.8656 31.2405 33.9738 30.8076 34.3526C29.8877 35.1102 29.1301 36.1383 28.6431 37.1665C27.1821 40.0344 25.9375 42.9565 24.5306 45.8785C22.7449 49.6123 20.3098 52.859 16.6302 55.24C14.4657 56.5928 12.193 57.7832 9.97437 59.0819C7.21464 60.6512 4.45492 62.1122 1.7493 63.7356C1.26229 64.0061 0.721171 64.8719 0.829395 65.1425C1.09996 65.6295 1.85753 65.9001 2.56099 66.3871C7.21464 65.2507 11.8142 64.2226 16.3055 62.978C21.5544 61.517 25.234 58.2702 27.1279 53.5084C29.4007 47.7725 31.511 41.9825 33.5673 36.1383C33.7296 35.5431 33.405 34.4609 32.9721 34.1903Z" fill="#DDB762"/>
<path d="M24.6947 26.4525C26.6428 27.5889 28.5367 28.8335 30.5389 29.9698C31.0259 30.2404 31.6211 30.3486 32.1081 30.5651C32.5951 30.4568 32.9739 30.4027 33.2986 30.2404C35.6795 29.104 37.6276 27.5348 38.9263 25.3703C39.8462 23.8551 39.8462 22.1235 38.331 21.0413C36.5453 19.7426 34.5432 18.7145 32.4869 17.6863C32.054 17.4699 30.9718 17.7405 30.5389 18.1192C28.4285 20.0132 26.4804 22.0153 24.4783 23.9092C23.5043 24.9374 23.4502 25.695 24.6947 26.4525Z" fill="#DDB762"/>
<path d="M90.2213 20.9319C91.6283 20.4449 92.927 19.9579 94.2257 19.5791C100.016 17.9558 105.86 16.3865 111.65 14.8173C117.115 13.3021 122.526 11.8411 127.992 10.3259C129.29 9.94715 130.589 9.56837 130.21 7.67444C129.777 7.67444 129.561 7.62033 129.345 7.67444C119.28 10.4342 109.269 13.1398 99.2581 15.8995C96.6607 16.603 94.1174 17.3605 91.5742 18.1722C90.4378 18.6051 89.2473 19.2545 90.2213 20.9319Z" fill="#DDB762"/>
<path d="M64.4092 19.7419C73.7706 17.1445 83.1862 14.5471 92.5476 12.0039C93.9004 11.6251 95.0909 11.2463 95.3073 9.24414C94.2251 9.40648 93.4675 9.5147 92.7099 9.67704C86.3247 11.4086 79.9394 13.0861 73.5542 14.8718C68.1971 16.3328 62.84 17.848 57.4828 19.3631C56.0759 19.7419 54.6149 20.2289 54.5608 22.2852C55.3184 22.2311 55.9677 22.2852 56.5629 22.0687C59.1603 21.3653 61.7577 20.4454 64.4092 19.7419Z" fill="#DDB762"/>
<path d="M10.6246 95.8242V87.2745L4.07698 77.0472C3.48175 76.1273 3.10296 75.4239 2.8324 74.8828C2.61595 74.3416 2.45361 73.9087 2.45361 73.53C2.45361 72.8806 2.67006 72.3395 3.15707 71.9066C3.64408 71.4737 4.23932 71.2031 4.94278 71.2031C5.70035 71.2031 6.24147 71.4196 6.62026 71.8525C6.99904 72.2854 7.59428 73.0971 8.35185 74.3957L13.3843 82.5667L18.4708 74.3957C18.7955 73.9087 19.012 73.4758 19.2284 73.1512C19.4449 72.8265 19.6613 72.5018 19.9319 72.1771C20.2024 71.8525 20.473 71.636 20.7436 71.4737C21.0682 71.3113 21.447 71.2572 21.8799 71.2572C22.5834 71.2572 23.1245 71.4737 23.6115 71.9066C24.0985 72.3395 24.315 72.8806 24.315 73.4758C24.315 73.9628 24.2067 74.4499 23.9903 74.9369C23.7738 75.4239 23.3409 76.0732 22.7998 76.939L16.0358 87.2745V95.8242C16.0358 96.9606 15.7652 97.7722 15.2782 98.3134C14.7371 98.8545 14.0877 99.125 13.3302 99.125C12.5185 99.125 11.8691 98.8545 11.3821 98.3134C10.8951 97.7722 10.6246 96.9064 10.6246 95.8242Z" fill="#DDB762"/>
<path d="M37.2462 94.6323L32.9172 77.4787V96.0933C32.9172 97.1214 32.7008 97.879 32.2137 98.4201C31.7267 98.9612 31.1315 99.1777 30.3739 99.1777C29.6164 99.1777 29.0211 98.9071 28.5882 98.4201C28.1012 97.9331 27.8848 97.1214 27.8848 96.0933V74.773C27.8848 73.5826 28.2094 72.825 28.8047 72.3921C29.3999 71.9592 30.2657 71.7969 31.2938 71.7969H32.9713C33.9995 71.7969 34.7029 71.9051 35.1899 72.0674C35.6228 72.2298 36.0016 72.6086 36.2181 73.0415C36.4345 73.5285 36.7051 74.286 36.9756 75.3683L40.8717 90.1409L44.7678 75.3683C45.0383 74.286 45.3089 73.5285 45.5254 73.0415C45.7418 72.5544 46.0665 72.2298 46.5535 72.0674C46.9864 71.9051 47.744 71.7969 48.7721 71.7969H50.4496C51.4777 71.7969 52.3435 72.0133 52.9387 72.3921C53.534 72.825 53.8586 73.5826 53.8586 74.773V96.0933C53.8586 97.1214 53.6422 97.879 53.1552 98.4201C52.6682 98.9612 52.0729 99.1777 51.3154 99.1777C50.6119 99.1777 50.0167 98.9071 49.5297 98.4201C49.0427 97.879 48.8262 97.1214 48.8262 96.0933V77.4787L44.4972 94.6323C44.2267 95.7686 44.0102 96.5803 43.7938 97.0673C43.6314 97.6084 43.3068 98.0413 42.8197 98.4742C42.3327 98.9071 41.6834 99.1236 40.8176 99.1236C40.1682 99.1236 39.6271 98.9612 39.1942 98.6907C38.7613 98.4201 38.4367 98.0413 38.1661 97.6084C37.8955 97.1755 37.7332 96.6885 37.5709 96.2015C37.5709 95.7145 37.4085 95.1734 37.2462 94.6323Z" fill="#DDB762"/>
<path d="M77.0184 76.2355H71.0661V95.8241C71.0661 96.9604 70.7955 97.7721 70.3085 98.3132C69.8215 98.8544 69.1722 99.1249 68.3605 99.1249C67.5488 99.1249 66.8994 98.8544 66.3583 98.3132C65.8713 97.7721 65.6007 96.9063 65.6007 95.8241V76.2355H59.6484C58.7285 76.2355 58.025 76.019 57.5921 75.6402C57.1592 75.2073 56.8887 74.6662 56.8887 74.0169C56.8887 73.3134 57.1051 72.7723 57.5921 72.3394C58.0791 71.9065 58.7285 71.7441 59.6484 71.7441H77.0184C77.9383 71.7441 78.6418 71.9606 79.1288 72.3935C79.5617 72.8264 79.8323 73.3675 79.8323 74.0169C79.8323 74.6662 79.6158 75.2073 79.1288 75.6402C78.6959 76.019 77.9925 76.2355 77.0184 76.2355Z" fill="#DDB762"/>
<path d="M97.961 95.6077L96.6623 92.1987H85.6775L84.3788 95.6619C83.8918 97.0147 83.4589 97.9346 83.0801 98.3675C82.7013 98.8545 82.1602 99.0709 81.3485 99.0709C80.6451 99.0709 80.0498 98.8004 79.5087 98.3134C78.9676 97.8263 78.697 97.2311 78.697 96.5818C78.697 96.203 78.7511 95.8242 78.8594 95.4454C78.9676 95.0666 79.184 94.5255 79.4546 93.8221L86.3269 76.2897C86.5433 75.8027 86.7598 75.2074 87.0303 74.504C87.3009 73.8005 87.6255 73.2053 87.8961 72.7724C88.2208 72.2854 88.5996 71.9066 89.1407 71.636C89.6277 71.3655 90.277 71.2031 91.0346 71.2031C91.7922 71.2031 92.4415 71.3655 92.9285 71.636C93.4156 71.9066 93.8485 72.2854 94.1731 72.7724C94.4978 73.2594 94.7684 73.6923 94.9848 74.2334C95.2013 74.7745 95.4718 75.4239 95.7965 76.3438L102.831 93.7138C103.372 95.0125 103.643 95.9865 103.643 96.5818C103.643 97.2311 103.372 97.7722 102.885 98.3134C102.344 98.8545 101.749 99.0709 100.991 99.0709C100.558 99.0709 100.18 99.0168 99.909 98.8545C99.5844 98.6921 99.3679 98.4757 99.1515 98.2051C98.935 97.9346 98.7186 97.5558 98.5021 97.0147C98.2857 96.4735 98.1233 96.0406 97.961 95.6077ZM87.1385 88.1403H95.2013L91.1428 76.9931L87.1385 88.1403Z" fill="#DDB762"/>
<path d="M107.052 92.3603L120.904 75.802H109C108.188 75.802 107.539 75.6397 107.106 75.2609C106.673 74.8821 106.456 74.3951 106.456 73.7998C106.456 73.1505 106.673 72.6635 107.106 72.2847C107.539 71.9059 108.134 71.6895 109 71.6895H124.313C126.316 71.6895 127.29 72.6094 127.29 74.4492C127.29 75.315 127.127 76.0184 126.803 76.5596C126.478 77.1007 125.829 77.9124 124.8 79.1028L111.868 94.5789H126.153C127.019 94.5789 127.614 94.7413 128.047 95.1201C128.48 95.4447 128.697 95.9317 128.697 96.5811C128.697 97.2304 128.48 97.7716 128.047 98.1503C127.614 98.5291 127.019 98.7456 126.153 98.7456H108.621C107.43 98.7456 106.511 98.475 105.915 97.9339C105.32 97.3928 104.995 96.6893 104.995 95.7694C104.995 95.4447 105.049 95.1742 105.158 94.9036C105.266 94.6331 105.374 94.4166 105.536 94.2002C105.699 93.9837 105.915 93.659 106.24 93.3344C106.619 92.9556 106.835 92.6309 107.052 92.3603Z" fill="#DDB762"/>
</g>
<defs>
<clipPath id="clip0_1_1497">
<rect width="235.605" height="114.069" fill="white" transform="translate(0.827148 0.964844)"/>
</clipPath>
</defs>
</svg>
